<svg xmlns="http://www.w3.org/2000/svg" viewBox="0 0 800 400" width="800" height="400">
  <defs>
    <linearGradient id="sky" x1="0%" y1="0%" x2="0%" y2="100%">
      <stop offset="0%" style="stop-color:#87CEEB;stop-opacity:1" />
      <stop offset="100%" style="stop-color:#E0F6FF;stop-opacity:1" />
    </linearGradient>
    <linearGradient id="field" x1="0%" y1="0%" x2="0%" y2="100%">
      <stop offset="0%" style="stop-color:#90EE90;stop-opacity:1" />
      <stop offset="100%" style="stop-color:#228B22;stop-opacity:1" />
    </linearGradient>
  </defs>
  <rect width="800" height="400" fill="url(#sky)"/>
  <rect x="0" y="250" width="800" height="150" fill="url(#field)"/>
  <circle cx="150" cy="100" r="40" fill="#FFD700"/>
  <g transform="translate(400,200)">
    <rect x="-20" y="-30" width="40" height="60" fill="#8B4513"/>
    <circle cx="0" cy="-40" r="25" fill="#228B22"/>
    <circle cx="-15" cy="-35" r="8" fill="#32CD32"/>
    <circle cx="15" cy="-35" r="8" fill="#32CD32"/>
    <circle cx="0" cy="-20" r="8" fill="#32CD32"/>
  </g>
  <g transform="translate(600,220)">
    <rect x="-15" y="-25" width="30" height="50" fill="#8B4513"/>
    <polygon points="-10,-30 10,-30 5,-40 -5,-40" fill="#228B22"/>
    <circle cx="-8" cy="-20" r="5" fill="#FF6347"/>
    <circle cx="8" cy="-20" r="5" fill="#FF6347"/>
  </g>
  <g transform="translate(200,280)">
    <circle cx="0" cy="0" r="15" fill="#F4A460"/>
    <rect x="-10" y="15" width="20" height="30" fill="#8B4513"/>
    <line x1="-5" y1="20" x2="5" y2="20" stroke="#000" stroke-width="2"/>
    <line x1="0" y1="15" x2="0" y2="45" stroke="#000" stroke-width="2"/>
  </g>
  <text x="400" y="50" text-anchor="middle" font-family="Arial, sans-serif" font-size="24" fill="#2F4F4F">Smart Village Portal</text>
  <text x="400" y="80" text-anchor="middle" font-family="Arial, sans-serif" font-size="16" fill="#2F4F4F">Empowering Farmers, Connecting Communities</text>
</svg>