<svg xmlns="http://www.w3.org/2000/svg" viewBox="0 0 400 200" width="400" height="200">
  <defs>
    <linearGradient id="bg" x1="0%" y1="0%" x2="0%" y2="100%">
      <stop offset="0%" style="stop-color:#FFF8DC;stop-opacity:1" />
      <stop offset="100%" style="stop-color:#F5DEB3;stop-opacity:1" />
    </linearGradient>
  </defs>
  <rect width="400" height="200" fill="url(#bg)"/>
  <g transform="translate(50,50)">
    <rect x="0" y="0" width="80" height="100" fill="#8B4513"/>
    <polygon points="0,0 80,0 40,-30" fill="#228B22"/>
    <circle cx="20" cy="20" r="8" fill="#FFD700"/>
    <circle cx="60" cy="20" r="8" fill="#FFD700"/>
    <circle cx="40" cy="50" r="8" fill="#FFD700"/>
  </g>
  <g transform="translate(200,70)">
    <rect x="-20" y="-20" width="40" height="60" fill="#F4A460"/>
    <circle cx="0" cy="-30" r="15" fill="#228B22"/>
    <circle cx="-10" cy="-25" r="5" fill="#32CD32"/>
    <circle cx="10" cy="-25" r="5" fill="#32CD32"/>
    <circle cx="0" cy="-10" r="5" fill="#32CD32"/>
  </g>
  <g transform="translate(320,90)">
    <circle cx="0" cy="0" r="20" fill="#DEB887"/>
    <rect x="-15" y="20" width="30" height="40" fill="#8B4513"/>
    <line x1="-8" y1="25" x2="8" y2="25" stroke="#000" stroke-width="2"/>
    <line x1="0" y1="20" x2="0" y2="60" stroke="#000" stroke-width="2"/>
  </g>
  <text x="200" y="180" text-anchor="middle" font-family="Arial, sans-serif" font-size="14" fill="#2F4F4F">Latest Farming News</text>
</svg>