<svg xmlns="http://www.w3.org/2000/svg" viewBox="0 0 200 200" width="200" height="200">
  <defs>
    <linearGradient id="sky" x1="0%" y1="0%" x2="0%" y2="100%">
      <stop offset="0%" style="stop-color:#87CEEB;stop-opacity:1" />
      <stop offset="100%" style="stop-color:#E0F6FF;stop-opacity:1" />
    </linearGradient>
  </defs>
  <rect width="200" height="200" fill="url(#sky)"/>
  <circle cx="100" cy="60" r="25" fill="#FFD700"/>
  <g transform="translate(100,120)">
    <rect x="-20" y="-30" width="40" height="60" fill="#8B4513"/>
    <circle cx="0" cy="-40" r="20" fill="#228B22"/>
    <circle cx="-12" cy="-35" r="6" fill="#32CD32"/>
    <circle cx="12" cy="-35" r="6" fill="#32CD32"/>
    <circle cx="0" cy="-20" r="6" fill="#32CD32"/>
  </g>
  <g transform="translate(50,160)">
    <circle cx="0" cy="0" r="12" fill="#F4A460"/>
    <rect x="-8" y="12" width="16" height="24" fill="#8B4513"/>
    <line x1="-4" y1="16" x2="4" y2="16" stroke="#000" stroke-width="1"/>
    <line x1="0" y1="12" x2="0" y2="36" stroke="#000" stroke-width="1"/>
  </g>
  <g transform="translate(150,160)">
    <rect x="-10" y="-15" width="20" height="30" fill="#8B4513"/>
    <polygon points="-8,-20 8,-20 4,-30 -4,-30" fill="#228B22"/>
    <circle cx="-6" cy="-8" r="4" fill="#FF6347"/>
    <circle cx="6" cy="-8" r="4" fill="#FF6347"/>
  </g>
  <text x="100" y="190" text-anchor="middle" font-family="Arial, sans-serif" font-size="12" fill="#2F4F4F">Weather</text>
</svg>